%TF.GenerationSoftware,KiCad,Pcbnew,(6.0.10)*%
%TF.CreationDate,2023-04-17T16:04:16+07:00*%
%TF.ProjectId,PCB,5043422e-6b69-4636-9164-5f7063625858,rev?*%
%TF.SameCoordinates,Original*%
%TF.FileFunction,Copper,L1,Top*%
%TF.FilePolarity,Positive*%
%FSLAX46Y46*%
G04 Gerber Fmt 4.6, Leading zero omitted, Abs format (unit mm)*
G04 Created by KiCad (PCBNEW (6.0.10)) date 2023-04-17 16:04:16*
%MOMM*%
%LPD*%
G01*
G04 APERTURE LIST*
%TA.AperFunction,ComponentPad*%
%ADD10R,2.000000X2.000000*%
%TD*%
%TA.AperFunction,ComponentPad*%
%ADD11O,2.000000X1.600000*%
%TD*%
%TA.AperFunction,ComponentPad*%
%ADD12R,2.200000X2.200000*%
%TD*%
%TA.AperFunction,ComponentPad*%
%ADD13O,2.200000X2.200000*%
%TD*%
%TA.AperFunction,ComponentPad*%
%ADD14C,1.600000*%
%TD*%
%TA.AperFunction,ComponentPad*%
%ADD15O,1.600000X1.600000*%
%TD*%
%TA.AperFunction,ComponentPad*%
%ADD16R,3.960000X1.980000*%
%TD*%
%TA.AperFunction,ComponentPad*%
%ADD17O,3.960000X1.980000*%
%TD*%
%TA.AperFunction,ComponentPad*%
%ADD18R,1.980000X1.980000*%
%TD*%
%TA.AperFunction,ComponentPad*%
%ADD19C,1.980000*%
%TD*%
%TA.AperFunction,ComponentPad*%
%ADD20C,1.935000*%
%TD*%
%TA.AperFunction,ComponentPad*%
%ADD21R,1.050000X1.500000*%
%TD*%
%TA.AperFunction,ComponentPad*%
%ADD22O,1.050000X1.500000*%
%TD*%
%TA.AperFunction,ComponentPad*%
%ADD23R,1.700000X1.700000*%
%TD*%
%TA.AperFunction,ComponentPad*%
%ADD24O,1.700000X1.700000*%
%TD*%
%TA.AperFunction,Conductor*%
%ADD25C,0.500000*%
%TD*%
%TA.AperFunction,Conductor*%
%ADD26C,0.250000*%
%TD*%
%TA.AperFunction,Conductor*%
%ADD27C,0.750000*%
%TD*%
G04 APERTURE END LIST*
D10*
%TO.P,U1,1,~{RST}*%
%TO.N,unconnected-(U1-Pad1)*%
X135405000Y-89154000D03*
D11*
%TO.P,U1,2,A0*%
%TO.N,ANALAOG OUT*%
X135405000Y-86614000D03*
%TO.P,U1,3,D0*%
%TO.N,Input 3*%
X135405000Y-84074000D03*
%TO.P,U1,4,SCK/D5*%
%TO.N,Input 2*%
X135405000Y-81534000D03*
%TO.P,U1,5,MISO/D6*%
%TO.N,Input 1*%
X135405000Y-78994000D03*
%TO.P,U1,6,MOSI/D7*%
%TO.N,DIGITAL OUT*%
X135405000Y-76454000D03*
%TO.P,U1,7,CS/D8*%
%TO.N,unconnected-(U1-Pad7)*%
X135405000Y-73914000D03*
%TO.P,U1,8,3V3*%
%TO.N,unconnected-(U1-Pad8)*%
X135405000Y-71374000D03*
%TO.P,U1,9,5V*%
%TO.N,Net-(D1-Pad1)*%
X112545000Y-71374000D03*
%TO.P,U1,10,GND*%
%TO.N,GND*%
X112545000Y-73914000D03*
%TO.P,U1,11,D4*%
%TO.N,Servo*%
X112545000Y-76454000D03*
%TO.P,U1,12,D3*%
%TO.N,DHT11*%
X112545000Y-78994000D03*
%TO.P,U1,13,SDA/D2*%
%TO.N,SDA*%
X112545000Y-81534000D03*
%TO.P,U1,14,SCL/D1*%
%TO.N,SCL*%
X112545000Y-84074000D03*
%TO.P,U1,15,RX*%
%TO.N,unconnected-(U1-Pad15)*%
X112545000Y-86614000D03*
%TO.P,U1,16,TX*%
%TO.N,unconnected-(U1-Pad16)*%
X112545000Y-89154000D03*
%TD*%
D12*
%TO.P,D3,1,K*%
%TO.N,Net-(D1-Pad1)*%
X147828000Y-100584000D03*
D13*
%TO.P,D3,2,A*%
%TO.N,Net-(D3-Pad2)*%
X147828000Y-110744000D03*
%TD*%
D12*
%TO.P,D1,1,K*%
%TO.N,Net-(D1-Pad1)*%
X147828000Y-68072000D03*
D13*
%TO.P,D1,2,A*%
%TO.N,Net-(D1-Pad2)*%
X147828000Y-78232000D03*
%TD*%
D14*
%TO.P,R1,1*%
%TO.N,Input 1*%
X143002000Y-65532000D03*
D15*
%TO.P,R1,2*%
%TO.N,Net-(Q1-Pad2)*%
X143002000Y-73152000D03*
%TD*%
D16*
%TO.P,J1,1,Pin_1*%
%TO.N,Net-(J1-Pad1)*%
X178572000Y-78193000D03*
D17*
%TO.P,J1,2,Pin_2*%
%TO.N,Net-(J1-Pad2)*%
X178572000Y-73193000D03*
%TO.P,J1,3,Pin_3*%
%TO.N,Net-(J1-Pad3)*%
X178572000Y-68193000D03*
%TD*%
D14*
%TO.P,R2,1*%
%TO.N,Input 2*%
X143002000Y-83058000D03*
D15*
%TO.P,R2,2*%
%TO.N,Net-(Q2-Pad2)*%
X143002000Y-90678000D03*
%TD*%
D18*
%TO.P,K1,A1*%
%TO.N,Net-(D1-Pad1)*%
X155952000Y-67152000D03*
D19*
%TO.P,K1,A2*%
%TO.N,Net-(D1-Pad2)*%
X155952000Y-79152000D03*
D20*
%TO.P,K1,COM*%
%TO.N,Net-(J1-Pad2)*%
X153952000Y-73152000D03*
D19*
%TO.P,K1,NC*%
%TO.N,Net-(J1-Pad3)*%
X168152000Y-67152000D03*
%TO.P,K1,NO*%
%TO.N,Net-(J1-Pad1)*%
X168152000Y-79152000D03*
%TD*%
D21*
%TO.P,Q3,1,C*%
%TO.N,Net-(D3-Pad2)*%
X144272000Y-109876000D03*
D22*
%TO.P,Q3,2,B*%
%TO.N,Net-(Q3-Pad2)*%
X143002000Y-109876000D03*
%TO.P,Q3,3,E*%
%TO.N,GND*%
X141732000Y-109876000D03*
%TD*%
D18*
%TO.P,K2,A1*%
%TO.N,Net-(D1-Pad1)*%
X155952000Y-83408000D03*
D19*
%TO.P,K2,A2*%
%TO.N,Net-(D2-Pad2)*%
X155952000Y-95408000D03*
D20*
%TO.P,K2,COM*%
%TO.N,Net-(J2-Pad2)*%
X153952000Y-89408000D03*
D19*
%TO.P,K2,NC*%
%TO.N,Net-(J2-Pad3)*%
X168152000Y-83408000D03*
%TO.P,K2,NO*%
%TO.N,Net-(J2-Pad1)*%
X168152000Y-95408000D03*
%TD*%
D16*
%TO.P,J3,1,Pin_1*%
%TO.N,Net-(J3-Pad1)*%
X178572000Y-111213000D03*
D17*
%TO.P,J3,2,Pin_2*%
%TO.N,Net-(J3-Pad2)*%
X178572000Y-106213000D03*
%TO.P,J3,3,Pin_3*%
%TO.N,Net-(J3-Pad3)*%
X178572000Y-101213000D03*
%TD*%
D23*
%TO.P,Sensor2,1,Pin_1*%
%TO.N,unconnected-(Sensor2-Pad1)*%
X122936000Y-106680000D03*
D24*
%TO.P,Sensor2,2,Pin_2*%
%TO.N,DIGITAL OUT*%
X125476000Y-106680000D03*
%TO.P,Sensor2,3,Pin_3*%
%TO.N,GND*%
X128016000Y-106680000D03*
%TO.P,Sensor2,4,Pin_4*%
%TO.N,Net-(D1-Pad1)*%
X130556000Y-106680000D03*
%TD*%
D21*
%TO.P,Q1,1,C*%
%TO.N,Net-(D1-Pad2)*%
X144272000Y-77724000D03*
D22*
%TO.P,Q1,2,B*%
%TO.N,Net-(Q1-Pad2)*%
X143002000Y-77724000D03*
%TO.P,Q1,3,E*%
%TO.N,GND*%
X141732000Y-77724000D03*
%TD*%
D12*
%TO.P,D2,1,K*%
%TO.N,Net-(D1-Pad1)*%
X147828000Y-84582000D03*
D13*
%TO.P,D2,2,A*%
%TO.N,Net-(D2-Pad2)*%
X147828000Y-94742000D03*
%TD*%
D18*
%TO.P,K3,A1*%
%TO.N,Net-(D1-Pad1)*%
X155952000Y-99664000D03*
D19*
%TO.P,K3,A2*%
%TO.N,Net-(D3-Pad2)*%
X155952000Y-111664000D03*
D20*
%TO.P,K3,COM*%
%TO.N,Net-(J3-Pad2)*%
X153952000Y-105664000D03*
D19*
%TO.P,K3,NC*%
%TO.N,Net-(J3-Pad3)*%
X168152000Y-99664000D03*
%TO.P,K3,NO*%
%TO.N,Net-(J3-Pad1)*%
X168152000Y-111664000D03*
%TD*%
D14*
%TO.P,R3,1*%
%TO.N,Input 3*%
X143002000Y-98806000D03*
D15*
%TO.P,R3,2*%
%TO.N,Net-(Q3-Pad2)*%
X143002000Y-106426000D03*
%TD*%
D23*
%TO.P,DHT11,1,Pin_1*%
%TO.N,Net-(D1-Pad1)*%
X131841000Y-101600000D03*
D24*
%TO.P,DHT11,2,Pin_2*%
%TO.N,DHT11*%
X134381000Y-101600000D03*
%TO.P,DHT11,3,Pin_3*%
%TO.N,GND*%
X136921000Y-101600000D03*
%TD*%
D23*
%TO.P,Servo1,1,Pin_1*%
%TO.N,GND*%
X122936000Y-101600000D03*
D24*
%TO.P,Servo1,2,Pin_2*%
%TO.N,Net-(D1-Pad1)*%
X125476000Y-101600000D03*
%TO.P,Servo1,3,Pin_3*%
%TO.N,Servo*%
X128016000Y-101600000D03*
%TD*%
D21*
%TO.P,Q2,1,C*%
%TO.N,Net-(D2-Pad2)*%
X144272000Y-94128000D03*
D22*
%TO.P,Q2,2,B*%
%TO.N,Net-(Q2-Pad2)*%
X143002000Y-94128000D03*
%TO.P,Q2,3,E*%
%TO.N,GND*%
X141732000Y-94128000D03*
%TD*%
D23*
%TO.P,Screen1,1,Pin_1*%
%TO.N,GND*%
X119116000Y-101600000D03*
D24*
%TO.P,Screen1,2,Pin_2*%
%TO.N,Net-(D1-Pad1)*%
X116576000Y-101600000D03*
%TO.P,Screen1,3,Pin_3*%
%TO.N,SDA*%
X114036000Y-101600000D03*
%TO.P,Screen1,4,Pin_4*%
%TO.N,SCL*%
X111496000Y-101600000D03*
%TD*%
D23*
%TO.P,Sensor1,1,Pin_1*%
%TO.N,ANALAOG OUT*%
X111506000Y-106680000D03*
D24*
%TO.P,Sensor1,2,Pin_2*%
%TO.N,unconnected-(Sensor1-Pad2)*%
X114046000Y-106680000D03*
%TO.P,Sensor1,3,Pin_3*%
%TO.N,GND*%
X116586000Y-106680000D03*
%TO.P,Sensor1,4,Pin_4*%
%TO.N,Net-(D1-Pad1)*%
X119126000Y-106680000D03*
%TD*%
D16*
%TO.P,J2,1,Pin_1*%
%TO.N,Net-(J2-Pad1)*%
X178572000Y-94703000D03*
D17*
%TO.P,J2,2,Pin_2*%
%TO.N,Net-(J2-Pad2)*%
X178572000Y-89703000D03*
%TO.P,J2,3,Pin_3*%
%TO.N,Net-(J2-Pad3)*%
X178572000Y-84703000D03*
%TD*%
D25*
%TO.N,ANALAOG OUT*%
X113284000Y-109728000D02*
X111506000Y-107950000D01*
X135636000Y-109728000D02*
X113284000Y-109728000D01*
X133604000Y-87884000D02*
X133604000Y-92456000D01*
X134874000Y-86614000D02*
X133604000Y-87884000D01*
X133604000Y-92456000D02*
X140208000Y-99060000D01*
X140208000Y-99060000D02*
X140208000Y-105156000D01*
X140208000Y-105156000D02*
X135636000Y-109728000D01*
X111506000Y-107950000D02*
X111506000Y-106680000D01*
%TO.N,Net-(D1-Pad1)*%
X116576000Y-73396000D02*
X116576000Y-101600000D01*
X112545000Y-71374000D02*
X114554000Y-71374000D01*
X114554000Y-71374000D02*
X116576000Y-73396000D01*
%TO.N,SDA*%
X115570000Y-84559000D02*
X112545000Y-81534000D01*
X114036000Y-100086000D02*
X115570000Y-98552000D01*
X115570000Y-98552000D02*
X115570000Y-84559000D01*
X114036000Y-101600000D02*
X114036000Y-100086000D01*
%TO.N,SCL*%
X114554000Y-97028000D02*
X111496000Y-100086000D01*
X113284000Y-84074000D02*
X114554000Y-85344000D01*
X114554000Y-85344000D02*
X114554000Y-97028000D01*
X111496000Y-100086000D02*
X111496000Y-101600000D01*
D26*
X112545000Y-84074000D02*
X113284000Y-84074000D01*
D25*
%TO.N,Input 2*%
X140208000Y-83058000D02*
X140716000Y-83058000D01*
X138684000Y-81534000D02*
X140208000Y-83058000D01*
X135405000Y-81534000D02*
X138684000Y-81534000D01*
%TO.N,DIGITAL OUT*%
X135405000Y-76454000D02*
X134366000Y-76454000D01*
X134366000Y-76454000D02*
X132650000Y-78170000D01*
X139192000Y-104928050D02*
X135346050Y-108774000D01*
X132650000Y-92999950D02*
X138492000Y-98841950D01*
X132650000Y-78170000D02*
X132650000Y-92999950D01*
X138492000Y-98841950D02*
X138492000Y-98868000D01*
X138492000Y-98868000D02*
X139192000Y-99568000D01*
X139192000Y-99568000D02*
X139192000Y-104928050D01*
X135346050Y-108774000D02*
X126300000Y-108774000D01*
X126300000Y-108774000D02*
X125476000Y-107950000D01*
X125476000Y-107950000D02*
X125476000Y-106680000D01*
%TO.N,Input 3*%
X138684000Y-84074000D02*
X139446000Y-84836000D01*
X135405000Y-84074000D02*
X138684000Y-84074000D01*
X139446000Y-84836000D02*
X139446000Y-85598000D01*
D27*
%TO.N,Net-(D1-Pad2)*%
X149860000Y-80264000D02*
X154840000Y-80264000D01*
X154840000Y-80264000D02*
X155952000Y-79152000D01*
D25*
X144780000Y-78232000D02*
X147828000Y-78232000D01*
D27*
X147828000Y-78232000D02*
X149860000Y-80264000D01*
D26*
X144272000Y-77724000D02*
X144780000Y-78232000D01*
D27*
%TO.N,Net-(D2-Pad2)*%
X149352000Y-96266000D02*
X155094000Y-96266000D01*
X155094000Y-96266000D02*
X155952000Y-95408000D01*
D26*
X147320000Y-95250000D02*
X147828000Y-94742000D01*
D27*
X147828000Y-94742000D02*
X149352000Y-96266000D01*
D25*
X145394000Y-95250000D02*
X147320000Y-95250000D01*
X144272000Y-94128000D02*
X145394000Y-95250000D01*
%TO.N,Net-(D3-Pad2)*%
X144272000Y-109876000D02*
X145182000Y-109876000D01*
X145182000Y-109876000D02*
X146050000Y-110744000D01*
D27*
X149352000Y-112268000D02*
X155348000Y-112268000D01*
D25*
X146050000Y-110744000D02*
X147828000Y-110744000D01*
D27*
X147828000Y-110744000D02*
X149352000Y-112268000D01*
D26*
X155348000Y-112268000D02*
X155952000Y-111664000D01*
D25*
%TO.N,Net-(Q1-Pad2)*%
X143002000Y-73152000D02*
X143002000Y-77724000D01*
%TO.N,Net-(Q2-Pad2)*%
X143002000Y-90678000D02*
X143002000Y-94128000D01*
%TO.N,Net-(Q3-Pad2)*%
X143002000Y-109876000D02*
X143002000Y-106426000D01*
%TO.N,Input 1*%
X139700000Y-77978000D02*
X139700000Y-71628000D01*
X135405000Y-78994000D02*
X138684000Y-78994000D01*
X139700000Y-71628000D02*
X143002000Y-68326000D01*
X143002000Y-68326000D02*
X143002000Y-65532000D01*
X138684000Y-78994000D02*
X139700000Y-77978000D01*
%TO.N,Input 2*%
X140716000Y-83058000D02*
X143002000Y-83058000D01*
%TO.N,Input 3*%
X139446000Y-96520000D02*
X141732000Y-98806000D01*
X141732000Y-98806000D02*
X143002000Y-98806000D01*
X139446000Y-85598000D02*
X139446000Y-96520000D01*
D26*
%TO.N,Servo*%
X112545000Y-76454000D02*
X112268000Y-76454000D01*
D25*
X109474000Y-103124000D02*
X110744000Y-104394000D01*
X128016000Y-103886000D02*
X128016000Y-101600000D01*
X127508000Y-104394000D02*
X128016000Y-103886000D01*
X109474000Y-79248000D02*
X109474000Y-103124000D01*
X112268000Y-76454000D02*
X109474000Y-79248000D01*
X110744000Y-104394000D02*
X127508000Y-104394000D01*
D26*
%TO.N,ANALAOG OUT*%
X134874000Y-86614000D02*
X135405000Y-86614000D01*
D27*
%TO.N,Net-(D1-Pad1)*%
X149352000Y-66548000D02*
X154178000Y-66548000D01*
X154178000Y-66548000D02*
X154782000Y-67152000D01*
X147828000Y-100584000D02*
X149352000Y-99060000D01*
X147828000Y-68072000D02*
X149352000Y-66548000D01*
X154432000Y-82296000D02*
X155544000Y-83408000D01*
X149352000Y-99060000D02*
X155348000Y-99060000D01*
X154782000Y-67152000D02*
X155952000Y-67152000D01*
X147828000Y-84582000D02*
X150114000Y-82296000D01*
D26*
X155348000Y-99060000D02*
X155952000Y-99664000D01*
X155544000Y-83408000D02*
X155952000Y-83408000D01*
D27*
X150114000Y-82296000D02*
X154432000Y-82296000D01*
%TD*%
M02*
