%TF.GenerationSoftware,KiCad,Pcbnew,(6.0.10)*%
%TF.CreationDate,2023-04-17T16:04:16+07:00*%
%TF.ProjectId,PCB,5043422e-6b69-4636-9164-5f7063625858,rev?*%
%TF.SameCoordinates,Original*%
%TF.FileFunction,Legend,Top*%
%TF.FilePolarity,Positive*%
%FSLAX46Y46*%
G04 Gerber Fmt 4.6, Leading zero omitted, Abs format (unit mm)*
G04 Created by KiCad (PCBNEW (6.0.10)) date 2023-04-17 16:04:16*
%MOMM*%
%LPD*%
G01*
G04 APERTURE LIST*
%ADD10C,0.150000*%
%ADD11C,0.120000*%
%ADD12C,0.127000*%
%ADD13C,0.300000*%
G04 APERTURE END LIST*
D10*
X118174190Y-72096380D02*
X118412285Y-73096380D01*
X118602761Y-72382095D01*
X118793238Y-73096380D01*
X119031333Y-72096380D01*
X119793238Y-73048761D02*
X119698000Y-73096380D01*
X119507523Y-73096380D01*
X119412285Y-73048761D01*
X119364666Y-72953523D01*
X119364666Y-72572571D01*
X119412285Y-72477333D01*
X119507523Y-72429714D01*
X119698000Y-72429714D01*
X119793238Y-72477333D01*
X119840857Y-72572571D01*
X119840857Y-72667809D01*
X119364666Y-72763047D01*
X120269428Y-73096380D02*
X120269428Y-72096380D01*
X120602761Y-72810666D01*
X120936095Y-72096380D01*
X120936095Y-73096380D01*
X121555142Y-73096380D02*
X121459904Y-73048761D01*
X121412285Y-73001142D01*
X121364666Y-72905904D01*
X121364666Y-72620190D01*
X121412285Y-72524952D01*
X121459904Y-72477333D01*
X121555142Y-72429714D01*
X121698000Y-72429714D01*
X121793238Y-72477333D01*
X121840857Y-72524952D01*
X121888476Y-72620190D01*
X121888476Y-72905904D01*
X121840857Y-73001142D01*
X121793238Y-73048761D01*
X121698000Y-73096380D01*
X121555142Y-73096380D01*
X122269428Y-73048761D02*
X122364666Y-73096380D01*
X122555142Y-73096380D01*
X122650380Y-73048761D01*
X122698000Y-72953523D01*
X122698000Y-72905904D01*
X122650380Y-72810666D01*
X122555142Y-72763047D01*
X122412285Y-72763047D01*
X122317047Y-72715428D01*
X122269428Y-72620190D01*
X122269428Y-72572571D01*
X122317047Y-72477333D01*
X122412285Y-72429714D01*
X122555142Y-72429714D01*
X122650380Y-72477333D01*
X123888476Y-73096380D02*
X123888476Y-72096380D01*
X124126571Y-72096380D01*
X124269428Y-72144000D01*
X124364666Y-72239238D01*
X124412285Y-72334476D01*
X124459904Y-72524952D01*
X124459904Y-72667809D01*
X124412285Y-72858285D01*
X124364666Y-72953523D01*
X124269428Y-73048761D01*
X124126571Y-73096380D01*
X123888476Y-73096380D01*
X125412285Y-73096380D02*
X124840857Y-73096380D01*
X125126571Y-73096380D02*
X125126571Y-72096380D01*
X125031333Y-72239238D01*
X124936095Y-72334476D01*
X124840857Y-72382095D01*
X126602761Y-73096380D02*
X126602761Y-72096380D01*
X126936095Y-72810666D01*
X127269428Y-72096380D01*
X127269428Y-73096380D01*
X127745619Y-73096380D02*
X127745619Y-72429714D01*
X127745619Y-72096380D02*
X127698000Y-72144000D01*
X127745619Y-72191619D01*
X127793238Y-72144000D01*
X127745619Y-72096380D01*
X127745619Y-72191619D01*
X128221809Y-72429714D02*
X128221809Y-73096380D01*
X128221809Y-72524952D02*
X128269428Y-72477333D01*
X128364666Y-72429714D01*
X128507523Y-72429714D01*
X128602761Y-72477333D01*
X128650380Y-72572571D01*
X128650380Y-73096380D01*
X129126571Y-73096380D02*
X129126571Y-72429714D01*
X129126571Y-72096380D02*
X129078952Y-72144000D01*
X129126571Y-72191619D01*
X129174190Y-72144000D01*
X129126571Y-72096380D01*
X129126571Y-72191619D01*
%TO.C,U1*%
X112643095Y-61606380D02*
X112643095Y-62415904D01*
X112690714Y-62511142D01*
X112738333Y-62558761D01*
X112833571Y-62606380D01*
X113024047Y-62606380D01*
X113119285Y-62558761D01*
X113166904Y-62511142D01*
X113214523Y-62415904D01*
X113214523Y-61606380D01*
X114214523Y-62606380D02*
X113643095Y-62606380D01*
X113928809Y-62606380D02*
X113928809Y-61606380D01*
X113833571Y-61749238D01*
X113738333Y-61844476D01*
X113643095Y-61892095D01*
%TO.C,D3*%
X148280380Y-106656095D02*
X147280380Y-106656095D01*
X147280380Y-106418000D01*
X147328000Y-106275142D01*
X147423238Y-106179904D01*
X147518476Y-106132285D01*
X147708952Y-106084666D01*
X147851809Y-106084666D01*
X148042285Y-106132285D01*
X148137523Y-106179904D01*
X148232761Y-106275142D01*
X148280380Y-106418000D01*
X148280380Y-106656095D01*
X147280380Y-105751333D02*
X147280380Y-105132285D01*
X147661333Y-105465619D01*
X147661333Y-105322761D01*
X147708952Y-105227523D01*
X147756571Y-105179904D01*
X147851809Y-105132285D01*
X148089904Y-105132285D01*
X148185142Y-105179904D01*
X148232761Y-105227523D01*
X148280380Y-105322761D01*
X148280380Y-105608476D01*
X148232761Y-105703714D01*
X148185142Y-105751333D01*
X152090380Y-100845904D02*
X151090380Y-100845904D01*
X152090380Y-100274476D02*
X151518952Y-100703047D01*
X151090380Y-100274476D02*
X151661809Y-100845904D01*
%TO.C,D1*%
X148280380Y-74144095D02*
X147280380Y-74144095D01*
X147280380Y-73906000D01*
X147328000Y-73763142D01*
X147423238Y-73667904D01*
X147518476Y-73620285D01*
X147708952Y-73572666D01*
X147851809Y-73572666D01*
X148042285Y-73620285D01*
X148137523Y-73667904D01*
X148232761Y-73763142D01*
X148280380Y-73906000D01*
X148280380Y-74144095D01*
X148280380Y-72620285D02*
X148280380Y-73191714D01*
X148280380Y-72906000D02*
X147280380Y-72906000D01*
X147423238Y-73001238D01*
X147518476Y-73096476D01*
X147566095Y-73191714D01*
%TO.C,R1*%
X143454380Y-69508666D02*
X142978190Y-69842000D01*
X143454380Y-70080095D02*
X142454380Y-70080095D01*
X142454380Y-69699142D01*
X142502000Y-69603904D01*
X142549619Y-69556285D01*
X142644857Y-69508666D01*
X142787714Y-69508666D01*
X142882952Y-69556285D01*
X142930571Y-69603904D01*
X142978190Y-69699142D01*
X142978190Y-70080095D01*
X143454380Y-68556285D02*
X143454380Y-69127714D01*
X143454380Y-68842000D02*
X142454380Y-68842000D01*
X142597238Y-68937238D01*
X142692476Y-69032476D01*
X142740095Y-69127714D01*
%TO.C,J1*%
X174204380Y-73485333D02*
X174918666Y-73485333D01*
X175061523Y-73532952D01*
X175156761Y-73628190D01*
X175204380Y-73771047D01*
X175204380Y-73866285D01*
X175204380Y-72485333D02*
X175204380Y-73056761D01*
X175204380Y-72771047D02*
X174204380Y-72771047D01*
X174347238Y-72866285D01*
X174442476Y-72961523D01*
X174490095Y-73056761D01*
%TO.C,R2*%
X143454380Y-87034666D02*
X142978190Y-87368000D01*
X143454380Y-87606095D02*
X142454380Y-87606095D01*
X142454380Y-87225142D01*
X142502000Y-87129904D01*
X142549619Y-87082285D01*
X142644857Y-87034666D01*
X142787714Y-87034666D01*
X142882952Y-87082285D01*
X142930571Y-87129904D01*
X142978190Y-87225142D01*
X142978190Y-87606095D01*
X142549619Y-86653714D02*
X142502000Y-86606095D01*
X142454380Y-86510857D01*
X142454380Y-86272761D01*
X142502000Y-86177523D01*
X142549619Y-86129904D01*
X142644857Y-86082285D01*
X142740095Y-86082285D01*
X142882952Y-86129904D01*
X143454380Y-86701333D01*
X143454380Y-86082285D01*
%TO.C,K1*%
X152090423Y-79732164D02*
X151090329Y-79732164D01*
X152090423Y-79160682D02*
X151518941Y-79589294D01*
X151090329Y-79160682D02*
X151661811Y-79732164D01*
X152090423Y-78208211D02*
X152090423Y-78779694D01*
X152090423Y-78493953D02*
X151090329Y-78493953D01*
X151233200Y-78589200D01*
X151328447Y-78684447D01*
X151376070Y-78779694D01*
%TO.C,Q3*%
X142906761Y-112053619D02*
X142811523Y-112006000D01*
X142716285Y-111910761D01*
X142573428Y-111767904D01*
X142478190Y-111720285D01*
X142382952Y-111720285D01*
X142430571Y-111958380D02*
X142335333Y-111910761D01*
X142240095Y-111815523D01*
X142192476Y-111625047D01*
X142192476Y-111291714D01*
X142240095Y-111101238D01*
X142335333Y-111006000D01*
X142430571Y-110958380D01*
X142621047Y-110958380D01*
X142716285Y-111006000D01*
X142811523Y-111101238D01*
X142859142Y-111291714D01*
X142859142Y-111625047D01*
X142811523Y-111815523D01*
X142716285Y-111910761D01*
X142621047Y-111958380D01*
X142430571Y-111958380D01*
X143192476Y-110958380D02*
X143811523Y-110958380D01*
X143478190Y-111339333D01*
X143621047Y-111339333D01*
X143716285Y-111386952D01*
X143763904Y-111434571D01*
X143811523Y-111529809D01*
X143811523Y-111767904D01*
X143763904Y-111863142D01*
X143716285Y-111910761D01*
X143621047Y-111958380D01*
X143335333Y-111958380D01*
X143240095Y-111910761D01*
X143192476Y-111863142D01*
%TO.C,K2*%
X152090423Y-95734164D02*
X151090329Y-95734164D01*
X152090423Y-95162682D02*
X151518941Y-95591294D01*
X151090329Y-95162682D02*
X151661811Y-95734164D01*
X151185576Y-94781694D02*
X151137953Y-94734070D01*
X151090329Y-94638823D01*
X151090329Y-94400705D01*
X151137953Y-94305458D01*
X151185576Y-94257835D01*
X151280823Y-94210211D01*
X151376070Y-94210211D01*
X151518941Y-94257835D01*
X152090423Y-94829317D01*
X152090423Y-94210211D01*
%TO.C,J3*%
X174204380Y-106251333D02*
X174918666Y-106251333D01*
X175061523Y-106298952D01*
X175156761Y-106394190D01*
X175204380Y-106537047D01*
X175204380Y-106632285D01*
X174204380Y-105870380D02*
X174204380Y-105251333D01*
X174585333Y-105584666D01*
X174585333Y-105441809D01*
X174632952Y-105346571D01*
X174680571Y-105298952D01*
X174775809Y-105251333D01*
X175013904Y-105251333D01*
X175109142Y-105298952D01*
X175156761Y-105346571D01*
X175204380Y-105441809D01*
X175204380Y-105727523D01*
X175156761Y-105822761D01*
X175109142Y-105870380D01*
%TO.C,Sensor2*%
X124444476Y-109624761D02*
X124587333Y-109672380D01*
X124825428Y-109672380D01*
X124920666Y-109624761D01*
X124968285Y-109577142D01*
X125015904Y-109481904D01*
X125015904Y-109386666D01*
X124968285Y-109291428D01*
X124920666Y-109243809D01*
X124825428Y-109196190D01*
X124634952Y-109148571D01*
X124539714Y-109100952D01*
X124492095Y-109053333D01*
X124444476Y-108958095D01*
X124444476Y-108862857D01*
X124492095Y-108767619D01*
X124539714Y-108720000D01*
X124634952Y-108672380D01*
X124873047Y-108672380D01*
X125015904Y-108720000D01*
X125825428Y-109624761D02*
X125730190Y-109672380D01*
X125539714Y-109672380D01*
X125444476Y-109624761D01*
X125396857Y-109529523D01*
X125396857Y-109148571D01*
X125444476Y-109053333D01*
X125539714Y-109005714D01*
X125730190Y-109005714D01*
X125825428Y-109053333D01*
X125873047Y-109148571D01*
X125873047Y-109243809D01*
X125396857Y-109339047D01*
X126301619Y-109005714D02*
X126301619Y-109672380D01*
X126301619Y-109100952D02*
X126349238Y-109053333D01*
X126444476Y-109005714D01*
X126587333Y-109005714D01*
X126682571Y-109053333D01*
X126730190Y-109148571D01*
X126730190Y-109672380D01*
X127158761Y-109624761D02*
X127254000Y-109672380D01*
X127444476Y-109672380D01*
X127539714Y-109624761D01*
X127587333Y-109529523D01*
X127587333Y-109481904D01*
X127539714Y-109386666D01*
X127444476Y-109339047D01*
X127301619Y-109339047D01*
X127206380Y-109291428D01*
X127158761Y-109196190D01*
X127158761Y-109148571D01*
X127206380Y-109053333D01*
X127301619Y-109005714D01*
X127444476Y-109005714D01*
X127539714Y-109053333D01*
X128158761Y-109672380D02*
X128063523Y-109624761D01*
X128015904Y-109577142D01*
X127968285Y-109481904D01*
X127968285Y-109196190D01*
X128015904Y-109100952D01*
X128063523Y-109053333D01*
X128158761Y-109005714D01*
X128301619Y-109005714D01*
X128396857Y-109053333D01*
X128444476Y-109100952D01*
X128492095Y-109196190D01*
X128492095Y-109481904D01*
X128444476Y-109577142D01*
X128396857Y-109624761D01*
X128301619Y-109672380D01*
X128158761Y-109672380D01*
X128920666Y-109672380D02*
X128920666Y-109005714D01*
X128920666Y-109196190D02*
X128968285Y-109100952D01*
X129015904Y-109053333D01*
X129111142Y-109005714D01*
X129206380Y-109005714D01*
X129492095Y-108767619D02*
X129539714Y-108720000D01*
X129634952Y-108672380D01*
X129873047Y-108672380D01*
X129968285Y-108720000D01*
X130015904Y-108767619D01*
X130063523Y-108862857D01*
X130063523Y-108958095D01*
X130015904Y-109100952D01*
X129444476Y-109672380D01*
X130063523Y-109672380D01*
%TO.C,Q1*%
X142906761Y-79795619D02*
X142811523Y-79748000D01*
X142716285Y-79652761D01*
X142573428Y-79509904D01*
X142478190Y-79462285D01*
X142382952Y-79462285D01*
X142430571Y-79700380D02*
X142335333Y-79652761D01*
X142240095Y-79557523D01*
X142192476Y-79367047D01*
X142192476Y-79033714D01*
X142240095Y-78843238D01*
X142335333Y-78748000D01*
X142430571Y-78700380D01*
X142621047Y-78700380D01*
X142716285Y-78748000D01*
X142811523Y-78843238D01*
X142859142Y-79033714D01*
X142859142Y-79367047D01*
X142811523Y-79557523D01*
X142716285Y-79652761D01*
X142621047Y-79700380D01*
X142430571Y-79700380D01*
X143811523Y-79700380D02*
X143240095Y-79700380D01*
X143525809Y-79700380D02*
X143525809Y-78700380D01*
X143430571Y-78843238D01*
X143335333Y-78938476D01*
X143240095Y-78986095D01*
%TO.C,D2*%
X148280380Y-90654095D02*
X147280380Y-90654095D01*
X147280380Y-90416000D01*
X147328000Y-90273142D01*
X147423238Y-90177904D01*
X147518476Y-90130285D01*
X147708952Y-90082666D01*
X147851809Y-90082666D01*
X148042285Y-90130285D01*
X148137523Y-90177904D01*
X148232761Y-90273142D01*
X148280380Y-90416000D01*
X148280380Y-90654095D01*
X147375619Y-89701714D02*
X147328000Y-89654095D01*
X147280380Y-89558857D01*
X147280380Y-89320761D01*
X147328000Y-89225523D01*
X147375619Y-89177904D01*
X147470857Y-89130285D01*
X147566095Y-89130285D01*
X147708952Y-89177904D01*
X148280380Y-89749333D01*
X148280380Y-89130285D01*
X152090380Y-84843904D02*
X151090380Y-84843904D01*
X152090380Y-84272476D02*
X151518952Y-84701047D01*
X151090380Y-84272476D02*
X151661809Y-84843904D01*
%TO.C,K3*%
X152090423Y-111736164D02*
X151090329Y-111736164D01*
X152090423Y-111164682D02*
X151518941Y-111593294D01*
X151090329Y-111164682D02*
X151661811Y-111736164D01*
X151090329Y-110831317D02*
X151090329Y-110212211D01*
X151471317Y-110545576D01*
X151471317Y-110402705D01*
X151518941Y-110307458D01*
X151566564Y-110259835D01*
X151661811Y-110212211D01*
X151899929Y-110212211D01*
X151995176Y-110259835D01*
X152042799Y-110307458D01*
X152090423Y-110402705D01*
X152090423Y-110688447D01*
X152042799Y-110783694D01*
X151995176Y-110831317D01*
%TO.C,R3*%
X143454380Y-102782666D02*
X142978190Y-103116000D01*
X143454380Y-103354095D02*
X142454380Y-103354095D01*
X142454380Y-102973142D01*
X142502000Y-102877904D01*
X142549619Y-102830285D01*
X142644857Y-102782666D01*
X142787714Y-102782666D01*
X142882952Y-102830285D01*
X142930571Y-102877904D01*
X142978190Y-102973142D01*
X142978190Y-103354095D01*
X142454380Y-102449333D02*
X142454380Y-101830285D01*
X142835333Y-102163619D01*
X142835333Y-102020761D01*
X142882952Y-101925523D01*
X142930571Y-101877904D01*
X143025809Y-101830285D01*
X143263904Y-101830285D01*
X143359142Y-101877904D01*
X143406761Y-101925523D01*
X143454380Y-102020761D01*
X143454380Y-102306476D01*
X143406761Y-102401714D01*
X143359142Y-102449333D01*
%TO.C,DHT11*%
X132261952Y-104592380D02*
X132261952Y-103592380D01*
X132500047Y-103592380D01*
X132642904Y-103640000D01*
X132738142Y-103735238D01*
X132785761Y-103830476D01*
X132833380Y-104020952D01*
X132833380Y-104163809D01*
X132785761Y-104354285D01*
X132738142Y-104449523D01*
X132642904Y-104544761D01*
X132500047Y-104592380D01*
X132261952Y-104592380D01*
X133261952Y-104592380D02*
X133261952Y-103592380D01*
X133261952Y-104068571D02*
X133833380Y-104068571D01*
X133833380Y-104592380D02*
X133833380Y-103592380D01*
X134166714Y-103592380D02*
X134738142Y-103592380D01*
X134452428Y-104592380D02*
X134452428Y-103592380D01*
X135595285Y-104592380D02*
X135023857Y-104592380D01*
X135309571Y-104592380D02*
X135309571Y-103592380D01*
X135214333Y-103735238D01*
X135119095Y-103830476D01*
X135023857Y-103878095D01*
X136547666Y-104592380D02*
X135976238Y-104592380D01*
X136261952Y-104592380D02*
X136261952Y-103592380D01*
X136166714Y-103735238D01*
X136071476Y-103830476D01*
X135976238Y-103878095D01*
%TO.C,Servo1*%
X122873666Y-104544761D02*
X123016523Y-104592380D01*
X123254619Y-104592380D01*
X123349857Y-104544761D01*
X123397476Y-104497142D01*
X123445095Y-104401904D01*
X123445095Y-104306666D01*
X123397476Y-104211428D01*
X123349857Y-104163809D01*
X123254619Y-104116190D01*
X123064142Y-104068571D01*
X122968904Y-104020952D01*
X122921285Y-103973333D01*
X122873666Y-103878095D01*
X122873666Y-103782857D01*
X122921285Y-103687619D01*
X122968904Y-103640000D01*
X123064142Y-103592380D01*
X123302238Y-103592380D01*
X123445095Y-103640000D01*
X124254619Y-104544761D02*
X124159380Y-104592380D01*
X123968904Y-104592380D01*
X123873666Y-104544761D01*
X123826047Y-104449523D01*
X123826047Y-104068571D01*
X123873666Y-103973333D01*
X123968904Y-103925714D01*
X124159380Y-103925714D01*
X124254619Y-103973333D01*
X124302238Y-104068571D01*
X124302238Y-104163809D01*
X123826047Y-104259047D01*
X124730809Y-104592380D02*
X124730809Y-103925714D01*
X124730809Y-104116190D02*
X124778428Y-104020952D01*
X124826047Y-103973333D01*
X124921285Y-103925714D01*
X125016523Y-103925714D01*
X125254619Y-103925714D02*
X125492714Y-104592380D01*
X125730809Y-103925714D01*
X126254619Y-104592380D02*
X126159380Y-104544761D01*
X126111761Y-104497142D01*
X126064142Y-104401904D01*
X126064142Y-104116190D01*
X126111761Y-104020952D01*
X126159380Y-103973333D01*
X126254619Y-103925714D01*
X126397476Y-103925714D01*
X126492714Y-103973333D01*
X126540333Y-104020952D01*
X126587952Y-104116190D01*
X126587952Y-104401904D01*
X126540333Y-104497142D01*
X126492714Y-104544761D01*
X126397476Y-104592380D01*
X126254619Y-104592380D01*
X127540333Y-104592380D02*
X126968904Y-104592380D01*
X127254619Y-104592380D02*
X127254619Y-103592380D01*
X127159380Y-103735238D01*
X127064142Y-103830476D01*
X126968904Y-103878095D01*
%TO.C,Q2*%
X142906761Y-96305619D02*
X142811523Y-96258000D01*
X142716285Y-96162761D01*
X142573428Y-96019904D01*
X142478190Y-95972285D01*
X142382952Y-95972285D01*
X142430571Y-96210380D02*
X142335333Y-96162761D01*
X142240095Y-96067523D01*
X142192476Y-95877047D01*
X142192476Y-95543714D01*
X142240095Y-95353238D01*
X142335333Y-95258000D01*
X142430571Y-95210380D01*
X142621047Y-95210380D01*
X142716285Y-95258000D01*
X142811523Y-95353238D01*
X142859142Y-95543714D01*
X142859142Y-95877047D01*
X142811523Y-96067523D01*
X142716285Y-96162761D01*
X142621047Y-96210380D01*
X142430571Y-96210380D01*
X143240095Y-95305619D02*
X143287714Y-95258000D01*
X143382952Y-95210380D01*
X143621047Y-95210380D01*
X143716285Y-95258000D01*
X143763904Y-95305619D01*
X143811523Y-95400857D01*
X143811523Y-95496095D01*
X143763904Y-95638952D01*
X143192476Y-96210380D01*
X143811523Y-96210380D01*
%TO.C,Screen1*%
X111998476Y-104544761D02*
X112141333Y-104592380D01*
X112379428Y-104592380D01*
X112474666Y-104544761D01*
X112522285Y-104497142D01*
X112569904Y-104401904D01*
X112569904Y-104306666D01*
X112522285Y-104211428D01*
X112474666Y-104163809D01*
X112379428Y-104116190D01*
X112188952Y-104068571D01*
X112093714Y-104020952D01*
X112046095Y-103973333D01*
X111998476Y-103878095D01*
X111998476Y-103782857D01*
X112046095Y-103687619D01*
X112093714Y-103640000D01*
X112188952Y-103592380D01*
X112427047Y-103592380D01*
X112569904Y-103640000D01*
X113427047Y-104544761D02*
X113331809Y-104592380D01*
X113141333Y-104592380D01*
X113046095Y-104544761D01*
X112998476Y-104497142D01*
X112950857Y-104401904D01*
X112950857Y-104116190D01*
X112998476Y-104020952D01*
X113046095Y-103973333D01*
X113141333Y-103925714D01*
X113331809Y-103925714D01*
X113427047Y-103973333D01*
X113855619Y-104592380D02*
X113855619Y-103925714D01*
X113855619Y-104116190D02*
X113903238Y-104020952D01*
X113950857Y-103973333D01*
X114046095Y-103925714D01*
X114141333Y-103925714D01*
X114855619Y-104544761D02*
X114760380Y-104592380D01*
X114569904Y-104592380D01*
X114474666Y-104544761D01*
X114427047Y-104449523D01*
X114427047Y-104068571D01*
X114474666Y-103973333D01*
X114569904Y-103925714D01*
X114760380Y-103925714D01*
X114855619Y-103973333D01*
X114903238Y-104068571D01*
X114903238Y-104163809D01*
X114427047Y-104259047D01*
X115712761Y-104544761D02*
X115617523Y-104592380D01*
X115427047Y-104592380D01*
X115331809Y-104544761D01*
X115284190Y-104449523D01*
X115284190Y-104068571D01*
X115331809Y-103973333D01*
X115427047Y-103925714D01*
X115617523Y-103925714D01*
X115712761Y-103973333D01*
X115760380Y-104068571D01*
X115760380Y-104163809D01*
X115284190Y-104259047D01*
X116188952Y-103925714D02*
X116188952Y-104592380D01*
X116188952Y-104020952D02*
X116236571Y-103973333D01*
X116331809Y-103925714D01*
X116474666Y-103925714D01*
X116569904Y-103973333D01*
X116617523Y-104068571D01*
X116617523Y-104592380D01*
X117617523Y-104592380D02*
X117046095Y-104592380D01*
X117331809Y-104592380D02*
X117331809Y-103592380D01*
X117236571Y-103735238D01*
X117141333Y-103830476D01*
X117046095Y-103878095D01*
%TO.C,Sensor1*%
X112506476Y-109624761D02*
X112649333Y-109672380D01*
X112887428Y-109672380D01*
X112982666Y-109624761D01*
X113030285Y-109577142D01*
X113077904Y-109481904D01*
X113077904Y-109386666D01*
X113030285Y-109291428D01*
X112982666Y-109243809D01*
X112887428Y-109196190D01*
X112696952Y-109148571D01*
X112601714Y-109100952D01*
X112554095Y-109053333D01*
X112506476Y-108958095D01*
X112506476Y-108862857D01*
X112554095Y-108767619D01*
X112601714Y-108720000D01*
X112696952Y-108672380D01*
X112935047Y-108672380D01*
X113077904Y-108720000D01*
X113887428Y-109624761D02*
X113792190Y-109672380D01*
X113601714Y-109672380D01*
X113506476Y-109624761D01*
X113458857Y-109529523D01*
X113458857Y-109148571D01*
X113506476Y-109053333D01*
X113601714Y-109005714D01*
X113792190Y-109005714D01*
X113887428Y-109053333D01*
X113935047Y-109148571D01*
X113935047Y-109243809D01*
X113458857Y-109339047D01*
X114363619Y-109005714D02*
X114363619Y-109672380D01*
X114363619Y-109100952D02*
X114411238Y-109053333D01*
X114506476Y-109005714D01*
X114649333Y-109005714D01*
X114744571Y-109053333D01*
X114792190Y-109148571D01*
X114792190Y-109672380D01*
X115220761Y-109624761D02*
X115316000Y-109672380D01*
X115506476Y-109672380D01*
X115601714Y-109624761D01*
X115649333Y-109529523D01*
X115649333Y-109481904D01*
X115601714Y-109386666D01*
X115506476Y-109339047D01*
X115363619Y-109339047D01*
X115268380Y-109291428D01*
X115220761Y-109196190D01*
X115220761Y-109148571D01*
X115268380Y-109053333D01*
X115363619Y-109005714D01*
X115506476Y-109005714D01*
X115601714Y-109053333D01*
X116220761Y-109672380D02*
X116125523Y-109624761D01*
X116077904Y-109577142D01*
X116030285Y-109481904D01*
X116030285Y-109196190D01*
X116077904Y-109100952D01*
X116125523Y-109053333D01*
X116220761Y-109005714D01*
X116363619Y-109005714D01*
X116458857Y-109053333D01*
X116506476Y-109100952D01*
X116554095Y-109196190D01*
X116554095Y-109481904D01*
X116506476Y-109577142D01*
X116458857Y-109624761D01*
X116363619Y-109672380D01*
X116220761Y-109672380D01*
X116982666Y-109672380D02*
X116982666Y-109005714D01*
X116982666Y-109196190D02*
X117030285Y-109100952D01*
X117077904Y-109053333D01*
X117173142Y-109005714D01*
X117268380Y-109005714D01*
X118125523Y-109672380D02*
X117554095Y-109672380D01*
X117839809Y-109672380D02*
X117839809Y-108672380D01*
X117744571Y-108815238D01*
X117649333Y-108910476D01*
X117554095Y-108958095D01*
%TO.C,J2*%
X174204380Y-90036333D02*
X174918666Y-90036333D01*
X175061523Y-90083952D01*
X175156761Y-90179190D01*
X175204380Y-90322047D01*
X175204380Y-90417285D01*
X174299619Y-89607761D02*
X174252000Y-89560142D01*
X174204380Y-89464904D01*
X174204380Y-89226809D01*
X174252000Y-89131571D01*
X174299619Y-89083952D01*
X174394857Y-89036333D01*
X174490095Y-89036333D01*
X174632952Y-89083952D01*
X175204380Y-89655380D01*
X175204380Y-89036333D01*
D11*
%TO.C,U1*%
X134365000Y-63034000D02*
X111045000Y-63034000D01*
X136905000Y-69934000D02*
X134365000Y-69934000D01*
X111045000Y-63034000D02*
X111045000Y-95364000D01*
X136905000Y-69934000D02*
X136905000Y-95364000D01*
X134365000Y-69934000D02*
X134365000Y-63034000D01*
X113165000Y-97494000D02*
X134775000Y-97494000D01*
X134775000Y-97494000D02*
G75*
G03*
X136905000Y-95364000I-2J2130002D01*
G01*
X111045000Y-95364000D02*
G75*
G03*
X113175000Y-97494000I2130000J0D01*
G01*
G36*
X137945000Y-89789000D02*
G01*
X137310000Y-89154000D01*
X137945000Y-88519000D01*
X137945000Y-89789000D01*
G37*
D10*
X137945000Y-89789000D02*
X137310000Y-89154000D01*
X137945000Y-88519000D01*
X137945000Y-89789000D01*
D11*
%TO.C,D3*%
X149298000Y-103964000D02*
X146358000Y-103964000D01*
X149298000Y-103724000D02*
X146358000Y-103724000D01*
X147828000Y-109404000D02*
X147828000Y-108384000D01*
X146358000Y-108384000D02*
X149298000Y-108384000D01*
X149298000Y-103844000D02*
X146358000Y-103844000D01*
X147828000Y-101924000D02*
X147828000Y-102944000D01*
X149298000Y-102944000D02*
X146358000Y-102944000D01*
X146358000Y-102944000D02*
X146358000Y-108384000D01*
X149298000Y-108384000D02*
X149298000Y-102944000D01*
%TO.C,D1*%
X146358000Y-75872000D02*
X149298000Y-75872000D01*
X149298000Y-71212000D02*
X146358000Y-71212000D01*
X149298000Y-70432000D02*
X146358000Y-70432000D01*
X147828000Y-69412000D02*
X147828000Y-70432000D01*
X149298000Y-71452000D02*
X146358000Y-71452000D01*
X149298000Y-75872000D02*
X149298000Y-70432000D01*
X146358000Y-70432000D02*
X146358000Y-75872000D01*
X147828000Y-76892000D02*
X147828000Y-75872000D01*
X149298000Y-71332000D02*
X146358000Y-71332000D01*
%TO.C,R1*%
X141632000Y-66072000D02*
X141632000Y-72612000D01*
X141632000Y-72612000D02*
X141962000Y-72612000D01*
X144372000Y-66072000D02*
X144372000Y-72612000D01*
X144372000Y-72612000D02*
X144042000Y-72612000D01*
X141962000Y-66072000D02*
X141632000Y-66072000D01*
X144042000Y-66072000D02*
X144372000Y-66072000D01*
%TO.C,J1*%
X172272000Y-64943000D02*
X172272000Y-80843000D01*
X184222000Y-64943000D02*
X182222000Y-64943000D01*
X172272000Y-80843000D02*
X184872000Y-80843000D01*
X184872000Y-65443000D02*
X183922000Y-65443000D01*
X184872000Y-80843000D02*
X184872000Y-65443000D01*
X177322000Y-64943000D02*
X172272000Y-64943000D01*
X177072000Y-65443000D02*
X177322000Y-64943000D01*
X182472000Y-65443000D02*
X177072000Y-65443000D01*
X182222000Y-64943000D02*
X182472000Y-65443000D01*
X183922000Y-65443000D02*
X184222000Y-64943000D01*
%TO.C,R2*%
X144372000Y-83598000D02*
X144372000Y-90138000D01*
X141962000Y-83598000D02*
X141632000Y-83598000D01*
X141632000Y-83598000D02*
X141632000Y-90138000D01*
X144042000Y-83598000D02*
X144372000Y-83598000D01*
X144372000Y-90138000D02*
X144042000Y-90138000D01*
X141632000Y-90138000D02*
X141962000Y-90138000D01*
D12*
%TO.C,K1*%
X152502000Y-65402000D02*
X171602000Y-65402000D01*
X171602000Y-80902000D02*
X152502000Y-80902000D01*
X171602000Y-65402000D02*
X171602000Y-80902000D01*
X152502000Y-80902000D02*
X152502000Y-65402000D01*
D13*
X151952000Y-67033000D02*
G75*
G03*
X151952000Y-67033000I-100000J0D01*
G01*
D11*
%TO.C,Q3*%
X144802000Y-108026000D02*
X141202000Y-108026000D01*
X141163522Y-108037522D02*
G75*
G03*
X143002000Y-112476000I1838478J-1838478D01*
G01*
X143002000Y-112476001D02*
G75*
G03*
X144840478Y-108037522I0J2600001D01*
G01*
D12*
%TO.C,K2*%
X152502000Y-81658000D02*
X171602000Y-81658000D01*
X171602000Y-97158000D02*
X152502000Y-97158000D01*
X171602000Y-81658000D02*
X171602000Y-97158000D01*
X152502000Y-97158000D02*
X152502000Y-81658000D01*
D13*
X151952000Y-83289000D02*
G75*
G03*
X151952000Y-83289000I-100000J0D01*
G01*
D11*
%TO.C,J3*%
X184872000Y-113863000D02*
X184872000Y-98463000D01*
X183922000Y-98463000D02*
X184222000Y-97963000D01*
X184872000Y-98463000D02*
X183922000Y-98463000D01*
X177322000Y-97963000D02*
X172272000Y-97963000D01*
X184222000Y-97963000D02*
X182222000Y-97963000D01*
X172272000Y-113863000D02*
X184872000Y-113863000D01*
X182472000Y-98463000D02*
X177072000Y-98463000D01*
X182222000Y-97963000D02*
X182472000Y-98463000D01*
X177072000Y-98463000D02*
X177322000Y-97963000D01*
X172272000Y-97963000D02*
X172272000Y-113863000D01*
%TO.C,Sensor2*%
X124206000Y-108010000D02*
X131886000Y-108010000D01*
X121606000Y-108010000D02*
X121606000Y-106680000D01*
X124206000Y-108010000D02*
X124206000Y-105350000D01*
X124206000Y-105350000D02*
X131886000Y-105350000D01*
X122936000Y-108010000D02*
X121606000Y-108010000D01*
X131886000Y-108010000D02*
X131886000Y-105350000D01*
%TO.C,Q1*%
X144802000Y-75874000D02*
X141202000Y-75874000D01*
X143002000Y-80324001D02*
G75*
G03*
X144840478Y-75885522I0J2600001D01*
G01*
X141163522Y-75885522D02*
G75*
G03*
X143002000Y-80324000I1838478J-1838478D01*
G01*
%TO.C,D2*%
X149298000Y-87842000D02*
X146358000Y-87842000D01*
X149298000Y-86942000D02*
X146358000Y-86942000D01*
X149298000Y-87962000D02*
X146358000Y-87962000D01*
X146358000Y-92382000D02*
X149298000Y-92382000D01*
X147828000Y-93402000D02*
X147828000Y-92382000D01*
X146358000Y-86942000D02*
X146358000Y-92382000D01*
X147828000Y-85922000D02*
X147828000Y-86942000D01*
X149298000Y-87722000D02*
X146358000Y-87722000D01*
X149298000Y-92382000D02*
X149298000Y-86942000D01*
D12*
%TO.C,K3*%
X152502000Y-113414000D02*
X152502000Y-97914000D01*
X171602000Y-113414000D02*
X152502000Y-113414000D01*
X152502000Y-97914000D02*
X171602000Y-97914000D01*
X171602000Y-97914000D02*
X171602000Y-113414000D01*
D13*
X151952000Y-99545000D02*
G75*
G03*
X151952000Y-99545000I-100000J0D01*
G01*
D11*
%TO.C,R3*%
X144042000Y-99346000D02*
X144372000Y-99346000D01*
X144372000Y-99346000D02*
X144372000Y-105886000D01*
X144372000Y-105886000D02*
X144042000Y-105886000D01*
X141632000Y-99346000D02*
X141632000Y-105886000D01*
X141632000Y-105886000D02*
X141962000Y-105886000D01*
X141962000Y-99346000D02*
X141632000Y-99346000D01*
%TO.C,DHT11*%
X133111000Y-102930000D02*
X133111000Y-100270000D01*
X133111000Y-102930000D02*
X138251000Y-102930000D01*
X130511000Y-102930000D02*
X130511000Y-101600000D01*
X131841000Y-102930000D02*
X130511000Y-102930000D01*
X138251000Y-102930000D02*
X138251000Y-100270000D01*
X133111000Y-100270000D02*
X138251000Y-100270000D01*
%TO.C,Servo1*%
X122936000Y-102930000D02*
X121606000Y-102930000D01*
X121606000Y-102930000D02*
X121606000Y-101600000D01*
X124206000Y-102930000D02*
X129346000Y-102930000D01*
X124206000Y-102930000D02*
X124206000Y-100270000D01*
X129346000Y-102930000D02*
X129346000Y-100270000D01*
X124206000Y-100270000D02*
X129346000Y-100270000D01*
%TO.C,Q2*%
X144802000Y-92278000D02*
X141202000Y-92278000D01*
X143002000Y-96728001D02*
G75*
G03*
X144840478Y-92289522I0J2600001D01*
G01*
X141163522Y-92289522D02*
G75*
G03*
X143002000Y-96728000I1838478J-1838478D01*
G01*
%TO.C,Screen1*%
X119116000Y-100270000D02*
X120446000Y-100270000D01*
X120446000Y-100270000D02*
X120446000Y-101600000D01*
X117846000Y-102930000D02*
X110166000Y-102930000D01*
X117846000Y-100270000D02*
X110166000Y-100270000D01*
X117846000Y-100270000D02*
X117846000Y-102930000D01*
X110166000Y-100270000D02*
X110166000Y-102930000D01*
%TO.C,Sensor1*%
X112776000Y-108010000D02*
X112776000Y-105350000D01*
X111506000Y-108010000D02*
X110176000Y-108010000D01*
X110176000Y-108010000D02*
X110176000Y-106680000D01*
X112776000Y-108010000D02*
X120456000Y-108010000D01*
X112776000Y-105350000D02*
X120456000Y-105350000D01*
X120456000Y-108010000D02*
X120456000Y-105350000D01*
%TO.C,J2*%
X182222000Y-81453000D02*
X182472000Y-81953000D01*
X184872000Y-81953000D02*
X183922000Y-81953000D01*
X182472000Y-81953000D02*
X177072000Y-81953000D01*
X172272000Y-97353000D02*
X184872000Y-97353000D01*
X177072000Y-81953000D02*
X177322000Y-81453000D01*
X172272000Y-81453000D02*
X172272000Y-97353000D01*
X184872000Y-97353000D02*
X184872000Y-81953000D01*
X184222000Y-81453000D02*
X182222000Y-81453000D01*
X183922000Y-81953000D02*
X184222000Y-81453000D01*
X177322000Y-81453000D02*
X172272000Y-81453000D01*
%TD*%
M02*
