%TF.GenerationSoftware,KiCad,Pcbnew,(6.0.10)*%
%TF.CreationDate,2023-04-17T16:04:16+07:00*%
%TF.ProjectId,PCB,5043422e-6b69-4636-9164-5f7063625858,rev?*%
%TF.SameCoordinates,Original*%
%TF.FileFunction,Profile,NP*%
%FSLAX46Y46*%
G04 Gerber Fmt 4.6, Leading zero omitted, Abs format (unit mm)*
G04 Created by KiCad (PCBNEW (6.0.10)) date 2023-04-17 16:04:16*
%MOMM*%
%LPD*%
G01*
G04 APERTURE LIST*
%TA.AperFunction,Profile*%
%ADD10C,0.100000*%
%TD*%
G04 APERTURE END LIST*
D10*
X105410000Y-108966000D02*
X105410000Y-68326000D01*
X101727000Y-108966000D02*
X105410000Y-108966000D01*
X101727000Y-108966000D02*
G75*
G03*
X101727000Y-116586000I127000J-3810000D01*
G01*
X101727000Y-68326000D02*
X105410000Y-68326000D01*
X101727000Y-60706000D02*
G75*
G03*
X101727000Y-68326000I127000J-3810000D01*
G01*
X157226000Y-74676000D02*
X154940000Y-74676000D01*
X186690000Y-57023000D02*
X186690000Y-60706000D01*
X105410000Y-116586000D02*
X179070000Y-116586000D01*
X151638000Y-74676000D02*
X151638000Y-71628000D01*
X152654000Y-74676000D02*
X154940000Y-74676000D01*
X152654000Y-90932000D02*
X154940000Y-90932000D01*
X152400000Y-106934000D02*
X152654000Y-107188000D01*
X186690000Y-57023000D02*
G75*
G03*
X179070000Y-57023000I-3810000J-127000D01*
G01*
X157226000Y-103378000D02*
X154940000Y-103378000D01*
X152400000Y-71882000D02*
X152654000Y-71628000D01*
X179070000Y-120269000D02*
G75*
G03*
X186690000Y-120269000I3810000J127000D01*
G01*
X152654000Y-107188000D02*
X154940000Y-107188000D01*
X157226000Y-104140000D02*
X157226000Y-103378000D01*
X157226000Y-91694000D02*
X157226000Y-90932000D01*
X157226000Y-75438000D02*
X157226000Y-74676000D01*
X154940000Y-91694000D02*
X157226000Y-91694000D01*
X152654000Y-87884000D02*
X154940000Y-87884000D01*
X152400000Y-88138000D02*
X152400000Y-90678000D01*
X152400000Y-107950000D02*
X151638000Y-107188000D01*
X154940000Y-107950000D02*
X157226000Y-107950000D01*
X152400000Y-104394000D02*
X152400000Y-106934000D01*
X157226000Y-71628000D02*
X157226000Y-70866000D01*
X101727000Y-116586000D02*
X105410000Y-116586000D01*
X152400000Y-74422000D02*
X152654000Y-74676000D01*
X186690000Y-120269000D02*
X186690000Y-116586000D01*
X154940000Y-71628000D02*
X157226000Y-71628000D01*
X154940000Y-107950000D02*
X152400000Y-107950000D01*
X157226000Y-87884000D02*
X157226000Y-87122000D01*
X179070000Y-120269000D02*
X179070000Y-116586000D01*
X157226000Y-87122000D02*
X154940000Y-87122000D01*
X101727000Y-60706000D02*
X105410000Y-60706000D01*
X151638000Y-107188000D02*
X151638000Y-104140000D01*
X154940000Y-91694000D02*
X152400000Y-91694000D01*
X154940000Y-103378000D02*
X152400000Y-103378000D01*
X152400000Y-70866000D02*
X151638000Y-71628000D01*
X154940000Y-75438000D02*
X152400000Y-75438000D01*
X152654000Y-71628000D02*
X154940000Y-71628000D01*
X157226000Y-70866000D02*
X154940000Y-70866000D01*
X152654000Y-104140000D02*
X154940000Y-104140000D01*
X152400000Y-104394000D02*
X152654000Y-104140000D01*
X157226000Y-107950000D02*
X157226000Y-107188000D01*
X106426000Y-60706000D02*
X179070000Y-60706000D01*
X152400000Y-87122000D02*
X151638000Y-87884000D01*
X152400000Y-91694000D02*
X151638000Y-90932000D01*
X157226000Y-90932000D02*
X154940000Y-90932000D01*
X154940000Y-87122000D02*
X152400000Y-87122000D01*
X179070000Y-57023000D02*
X179070000Y-60706000D01*
X152400000Y-103378000D02*
X151638000Y-104140000D01*
X152400000Y-90678000D02*
X152654000Y-90932000D01*
X154940000Y-87884000D02*
X157226000Y-87884000D01*
X157226000Y-107188000D02*
X154940000Y-107188000D01*
X151638000Y-90932000D02*
X151638000Y-87884000D01*
X105410000Y-60706000D02*
X106426000Y-60706000D01*
X152400000Y-88138000D02*
X152654000Y-87884000D01*
X152400000Y-71882000D02*
X152400000Y-74422000D01*
X152400000Y-75438000D02*
X151638000Y-74676000D01*
X154940000Y-75438000D02*
X157226000Y-75438000D01*
X186690000Y-60706000D02*
X186690000Y-116586000D01*
X154940000Y-70866000D02*
X152400000Y-70866000D01*
X154940000Y-104140000D02*
X157226000Y-104140000D01*
M02*
