M48
; DRILL file {KiCad (6.0.10)} date Mon Apr 17 16:02:23 2023
; FORMAT={-:-/ absolute / inch / decimal}
; #@! TF.CreationDate,2023-04-17T16:02:23+07:00
; #@! TF.GenerationSoftware,Kicad,Pcbnew,(6.0.10)
; #@! TF.FileFunction,MixedPlating,1,2
FMAT,2
INCH
; #@! TA.AperFunction,Plated,PTH,ComponentDrill
T1C0.0295
; #@! TA.AperFunction,Plated,PTH,ComponentDrill
T2C0.0315
; #@! TA.AperFunction,Plated,PTH,ComponentDrill
T3C0.0394
; #@! TA.AperFunction,Plated,PTH,ComponentDrill
T4C0.0433
; #@! TA.AperFunction,Plated,PTH,ComponentDrill
T5C0.0508
; #@! TA.AperFunction,Plated,PTH,ComponentDrill
T6C0.0520
; #@! TA.AperFunction,NonPlated,NPTH,ComponentDrill
T7C0.1260
%
G90
G05
T1
X5.58Y-3.06
X5.58Y-3.7058
X5.58Y-4.3258
X5.63Y-3.06
X5.63Y-3.7058
X5.63Y-4.3258
X5.68Y-3.06
X5.68Y-3.7058
X5.68Y-4.3258
T2
X5.63Y-2.58
X5.63Y-2.88
X5.63Y-3.27
X5.63Y-3.57
X5.63Y-3.89
X5.63Y-4.19
T3
X4.3896Y-4.0
X4.39Y-4.2
X4.4309Y-2.81
X4.4309Y-2.91
X4.4309Y-3.01
X4.4309Y-3.11
X4.4309Y-3.21
X4.4309Y-3.31
X4.4309Y-3.41
X4.4309Y-3.51
X4.4896Y-4.0
X4.49Y-4.2
X4.5896Y-4.0
X4.59Y-4.2
X4.6896Y-4.0
X4.69Y-4.2
X4.84Y-4.0
X4.84Y-4.2
X4.94Y-4.0
X4.94Y-4.2
X5.04Y-4.0
X5.04Y-4.2
X5.14Y-4.2
X5.1906Y-4.0
X5.2906Y-4.0
X5.3309Y-2.81
X5.3309Y-2.91
X5.3309Y-3.01
X5.3309Y-3.11
X5.3309Y-3.21
X5.3309Y-3.31
X5.3309Y-3.41
X5.3309Y-3.51
X5.3906Y-4.0
T4
X5.82Y-2.68
X5.82Y-3.08
X5.82Y-3.33
X5.82Y-3.73
X5.82Y-3.96
X5.82Y-4.36
T5
X6.0611Y-2.88
X6.0611Y-3.52
X6.0611Y-4.16
T6
X6.1398Y-2.6438
X6.1398Y-3.1162
X6.1398Y-3.2838
X6.1398Y-3.7562
X6.1398Y-3.9238
X6.1398Y-4.3962
X6.6202Y-2.6438
X6.6202Y-3.1162
X6.6202Y-3.2838
X6.6202Y-3.7562
X6.6202Y-3.9238
X6.6202Y-4.3962
X7.0304Y-2.6848
X7.0304Y-2.8816
X7.0304Y-3.0785
X7.0304Y-3.3348
X7.0304Y-3.5316
X7.0304Y-3.7285
X7.0304Y-3.9848
X7.0304Y-4.1816
X7.0304Y-4.3785
T7
X4.01Y-2.54
X4.01Y-4.44
X7.2Y-2.25
X7.2Y-4.73
T0
M30
